<?xml version="1.0" encoding="UTF-8" standalone="no"?><!DOCTYPE svg PUBLIC "-//W3C//DTD SVG 1.1//EN" "http://www.w3.org/Graphics/SVG/1.1/DTD/svg11.dtd"><svg xmlns="http://www.w3.org/2000/svg" version="1.1" width="303" height="175"><path stroke-linejoin="round" stroke-linecap="round" stroke-width="2" stroke="rgb(0, 0, 139)" fill="none" d="M 101 143 c 0.14 -0.35 4.95 -13.38 8 -20 c 3.04 -6.6 6.85 -12.38 10 -19 c 3.68 -7.74 7.55 -15.11 10 -23 c 3.5 -11.29 6.41 -23.44 8 -35 c 1.02 -7.4 0 -22.6 0 -23 c 0 -0.14 -0.68 5.6 0 8 c 2.79 9.88 8.65 20.44 11 31 c 4.26 19.16 6.39 38.92 9 59 c 0.79 6.07 0.87 11.8 1 18 c 0.21 9.97 0.52 20.36 0 29 c -0.08 1.33 -1.12 3.12 -2 4 c -0.88 0.88 -2.69 1.74 -4 2 c -1.76 0.35 -4.22 0.41 -6 0 c -2.26 -0.52 -4.99 -1.79 -7 -3 c -1.12 -0.67 -2.39 -1.93 -3 -3 c -0.59 -1.04 -1.15 -2.95 -1 -4 c 0.13 -0.92 1.14 -2.71 2 -3 c 2.4 -0.8 6.59 -0.94 10 -1 c 14.91 -0.28 35.13 0.79 44 0 c 0.83 -0.07 0.96 -2.67 1 -4 c 0.29 -10.97 -0.97 -22.69 0 -34 c 1.38 -16.14 3.5 -32.25 7 -48 c 3.17 -14.28 12.25 -40.73 13 -42 c 0.34 -0.58 -2.08 14.47 0 20 c 5.78 15.35 18.01 32.16 26 49 c 4.47 9.42 9.45 22.99 11 29 c 0.18 0.7 -2.29 2.37 -3 2 c -7.92 -4.07 -22.61 -14.29 -34 -21 c -1.53 -0.9 -5 -1.65 -5 -2 c 0 -0.33 3.33 -0.98 5 -1 c 29.52 -0.31 87.47 -0.28 90 0 c 0.78 0.09 -18.86 4.37 -27 7 c -1.46 0.47 -2.58 2.23 -4 3 c -2.16 1.18 -4.62 2.34 -7 3 c -3.5 0.97 -7.31 1.87 -11 2 c -14.84 0.53 -29.8 0.62 -45 0 c -9.51 -0.39 -18.42 -1.68 -28 -3 c -10.35 -1.43 -19.92 -4.66 -30 -5 c -39.11 -1.32 -80.71 1.39 -118 0 c -5.3 -0.2 -10.91 -2.92 -16 -5 c -3.81 -1.55 -7.92 -3.8 -11 -6 c -1.23 -0.88 -2.32 -2.63 -3 -4 c -0.56 -1.13 -1.64 -3.54 -1 -4 c 2.5 -1.79 9.91 -4.57 15 -6 c 5.44 -1.53 11.21 -2.59 17 -3 c 27.18 -1.94 53.38 -1.86 81 -4 c 16.48 -1.28 32.41 -2.67 48 -6 c 13.87 -2.96 28.16 -7.52 41 -13 c 9.37 -4 18.33 -10.22 27 -16 c 4.32 -2.88 8.36 -6.36 12 -10 c 3.64 -3.64 7.03 -7.89 10 -12 c 1.27 -1.76 2.47 -4.07 3 -6 c 0.39 -1.44 0.3 -3.49 0 -5 c -0.32 -1.62 -0.79 -4.32 -2 -5 c -5.05 -2.85 -14.07 -5.92 -21 -8 c -2.79 -0.84 -6.54 -1.2 -9 -1 c -0.98 0.08 -2.88 1.14 -3 2 c -0.65 4.77 -0.34 13.23 0 20 c 0.34 6.8 0.38 13.6 2 20 c 5.3 20.95 12.55 41.14 19 63 c 1.52 5.16 3.29 10.5 4 15 l -1 4"/></svg>
